<?xml version="1.0" encoding="utf-8"?>
<!-- Generator: Adobe Illustrator 19.0.0, SVG Export Plug-In . SVG Version: 6.00 Build 0)  -->
<svg version="1.1" xmlns="http://www.w3.org/2000/svg" xmlns:xlink="http://www.w3.org/1999/xlink" x="0px" y="0px"
	 viewBox="0 0 82.5 171.3" style="enable-background:new 0 0 82.5 171.3;" xml:space="preserve">
<style type="text/css">
	.st0{fill:#F7F7F7;stroke:#F7F7F7;stroke-miterlimit:10;}
	.st1{fill:#FFFFFF;stroke:#000000;stroke-miterlimit:10;}
	.st2{stroke:#000000;stroke-miterlimit:10;}
	.st3{fill:#FDFDFE;stroke:#F7F7F7;stroke-width:2;stroke-miterlimit:10;}
	.st4{stroke:#000000;stroke-width:2;stroke-miterlimit:10;}
</style>
<g id="Layer_1">
</g>
<g id="Layer_2">
	<path id="XMLID_2_" class="st0" d="M30.7,39.3c0,9.1-0.4,18.9-1.3,29.3c-0.7,7.7-1.6,15.1-2.7,22c1.5,0.2,3.7,0.5,6.3,0.7
		c3.4,0.3,8.8,0.7,15.7,0.3c1.8-0.1,4.3-0.3,7.3-0.7c-1.6-6.7-2.9-14-4-22c-1.4-10.7-2-20.5-2-29.3c-1.9-0.8-4.8-1.8-8.3-2
		c-2.3-0.2-4.2,0-5.3,0.2c-1.5,0.2-2.7,0.5-3.5,0.7C32.1,38.8,31.3,39.1,30.7,39.3z"/>
	<path id="XMLID_3_" class="st1" d="M28.7,97"/>
	<path id="XMLID_15_" class="st0" d="M30.7,40.3c0,9.1-0.4,18.9-1.3,29.3c-0.7,7.7-1.6,15.1-2.7,22c1.5,0.2,3.7,0.5,6.3,0.7
		c3.4,0.3,8.8,0.7,15.7,0.3c1.8-0.1,4.3-0.3,7.3-0.7c-1.6-6.7-2.9-14-4-22c-1.4-10.7-2-20.5-2-29.3c-1.9-0.8-4.8-1.8-8.3-2
		c-2.3-0.2-4.2,0-5.3,0.2c-1.5,0.2-2.7,0.5-3.5,0.7C32.1,39.8,31.3,40.1,30.7,40.3z"/>
	<path id="XMLID_14_" class="st1" d="M28.7,98"/>
</g>
<g id="Layer_5">
	<path id="XMLID_51_" class="st2" d="M37.9,45.3c-1-1.2-2.3-2.9-3.5-2.6c-2.3,0.5-2.8,6.9-3.7,23c-0.3,5.2-0.6,11.2-1,18
		c0,0.2,0.4,2.5,2.4,3.5c1.4,0.7,2.8,0.2,3.2,0.2c1.2,0.1,2.3-0.6,2.7-1.8c1.9-5.5,3.6-21.1,3.6-21.1C41.5,53.2,40.9,49.1,37.9,45.3
		z"/>
	<path id="XMLID_50_" class="st0" d="M102.7,59.3"/>
	<path id="XMLID_49_" class="st2" d="M133.1,82.7"/>
	<path id="XMLID_48_" class="st2" d="M37.9,46.3c-1-1.2-2.3-2.9-3.5-2.6c-2.3,0.5-2.8,6.9-3.7,23c-0.3,5.2-0.6,11.2-1,18
		c0,0.2,0.4,2.5,2.4,3.5c1.4,0.7,2.8,0.2,3.2,0.2c1.2,0.1,2.3-0.6,2.7-1.8c1.9-5.5,3.6-21.1,3.6-21.1C41.5,54.2,40.9,50.1,37.9,46.3
		z"/>
	<path id="XMLID_47_" class="st0" d="M102.7,60.3"/>
	<path id="XMLID_46_" class="st2" d="M133.1,83.7"/>
</g>
<g id="Layer_3">
	<path id="XMLID_4_" class="st3" d="M26.4,156c10.7,0,21.3,0,32,0c3.8-13,7.3-24.9,10.7-36.7c1.3-4.4,2.5-8.7,0.3-12.3
		c-3.4-5.6-11.8-4.2-16.3-11c-1.8-2.7-2-1.8-2.1-3.7c-6.2-0.3-12.4,0-18.6-0.4c0.2,1.8,0,0-1.3,2.4c-3.1,5.7-10.5,3.9-15,8.3
		c-5.3,5.2-2.9,15.5-0.3,26.7C17.2,135.7,20.1,145.2,26.4,156z"/>
	<path id="XMLID_7_" class="st3" d="M26.4,157c10.7,0,21.3,0,32,0c3.8-13,7.3-24.9,10.7-36.7c1.3-4.4,2.5-8.7,0.3-12.3
		c-3.4-5.6-11.8-4.2-16.3-11c-1.8-2.7-2-1.8-2.1-3.7c-6.2-0.3-12.4,0-18.6-0.4c0.2,1.8,0,0-1.3,2.4c-3.1,5.7-10.5,3.9-15,8.3
		c-5.3,5.2-2.9,15.5-0.3,26.7C17.2,136.7,20.1,146.2,26.4,157z"/>
</g>
<g id="Layer_4">
	<path id="XMLID_10_" class="st4" d="M32.9,102.2c-2.3-1.5-7.5,0.8-10.3,4.3c-10.3,12.8,7.8,44.4,10.3,43.7
		c1.4-0.4-3.3-9.6-1.8-26.3C32.3,111.6,35.9,104.2,32.9,102.2z"/>
	<path id="XMLID_9_" class="st4" d="M32.9,103.2c-2.3-1.5-7.5,0.8-10.3,4.3c-10.3,12.8,7.8,44.4,10.3,43.7c1.4-0.4-3.3-9.6-1.8-26.3
		C32.3,112.6,35.9,105.2,32.9,103.2z"/>
</g>
</svg>
